<svg width="32" height="32" viewBox="0 0 32 32" fill="none" xmlns="http://www.w3.org/2000/svg">
<rect width="32" height="32" fill="#161412"/>
<path fill-rule="evenodd" clip-rule="evenodd" d="M9.92577 8.70825H7.66699V9.95825H9.45239L11.7746 18.2094L11.9029 18.6651H12.3763H21.8458H22.3082L22.4435 18.2229L24.5202 11.4321L24.7672 10.6243H23.9225H12.3763V11.8743H23.0778L21.3834 17.4151H12.8497L10.5274 9.16393L10.3991 8.70825H9.92577ZM13.8575 20.4344C13.4137 20.4344 13.0539 20.7942 13.0539 21.238C13.0539 21.6818 13.4137 22.0416 13.8575 22.0416C14.3013 22.0416 14.661 21.6818 14.661 21.238C14.661 20.7942 14.3013 20.4344 13.8575 20.4344ZM11.8039 21.238C11.8039 20.1039 12.7233 19.1844 13.8575 19.1844C14.9916 19.1844 15.911 20.1039 15.911 21.238C15.911 22.3722 14.9916 23.2916 13.8575 23.2916C12.7233 23.2916 11.8039 22.3722 11.8039 21.238ZM20.5241 20.4344C20.0803 20.4344 19.7206 20.7942 19.7206 21.238C19.7206 21.6818 20.0803 22.0416 20.5241 22.0416C20.9679 22.0416 21.3277 21.6818 21.3277 21.238C21.3277 20.7942 20.9679 20.4344 20.5241 20.4344ZM18.4706 21.238C18.4706 20.1039 19.39 19.1844 20.5241 19.1844C21.6583 19.1844 22.5777 20.1039 22.5777 21.238C22.5777 22.3722 21.6583 23.2916 20.5241 23.2916C19.39 23.2916 18.4706 22.3722 18.4706 21.238Z" fill="white"/>
</svg>
