<svg width="24" height="24" viewBox="0 0 24 24" fill="none" xmlns="http://www.w3.org/2000/svg">
<path fill-rule="evenodd" clip-rule="evenodd" d="M10.0527 3.46924C6.36442 3.46924 3.375 6.45865 3.375 10.147C3.375 13.8353 6.36442 16.8247 10.0527 16.8247C11.575 16.8247 12.9782 16.3155 14.1013 15.4581L18.8773 20.2341L19.7612 19.3502L15.0206 14.6096C16.0837 13.4269 16.7304 11.8626 16.7304 10.147C16.7304 6.45865 13.741 3.46924 10.0527 3.46924ZM4.625 10.147C4.625 7.14901 7.05477 4.71924 10.0527 4.71924C13.0507 4.71924 15.4804 7.14901 15.4804 10.147C15.4804 13.1449 13.0507 15.5747 10.0527 15.5747C7.05477 15.5747 4.625 13.1449 4.625 10.147Z" fill="#161412"/>
</svg>
